<svg xmlns="http://www.w3.org/2000/svg" version="1.1" xmlns:xlink="http://www.w3.org/1999/xlink" xmlns:svgjs="http://svgjs.dev/svgjs" width="1500" height="1500" viewBox="0 0 1500 1500"><rect width="1500" height="1500" fill="#000000"></rect><g transform="matrix(0.6666666666666666,0,0,0.6666666666666666,249.39393939393938,575.6206115962353)"><svg viewBox="0 0 396 138" data-background-color="#35185a" preserveAspectRatio="xMidYMid meet" height="522" width="1500" xmlns="http://www.w3.org/2000/svg" xmlns:xlink="http://www.w3.org/1999/xlink"><g id="tight-bounds" transform="matrix(1,0,0,1,0.2400000000000091,0.1504471256308193)"><svg viewBox="0 0 395.52 137.69910574873836" height="137.69910574873836" width="395.52"><g><svg viewBox="0 0 395.52 137.69910574873836" height="137.69910574873836" width="395.52"><g><svg viewBox="0 0 657.8696987070891 229.03536916251545" height="137.69910574873836" width="395.52"><g transform="matrix(1,0,0,1,262.3496987070892,60.971547188394595)"><svg viewBox="0 0 395.52 107.09227478572626" height="107.09227478572626" width="395.52"><g id="textblocktransform"><svg viewBox="0 0 395.52 107.09227478572626" height="107.09227478572626" width="395.52" id="textblock"><g><svg viewBox="0 0 395.52 70.55848443843031" height="70.55848443843031" width="395.52"><g transform="matrix(1,0,0,1,0,0)"><svg width="395.52" viewBox="2.25 -38.8 221.68 39.55" height="70.55848443843031" data-palette-color="#a437db"><path d="M12.7 0.55L12.7 0.55Q9.03 0.55 6.28-0.68 3.53-1.9 2.25-3.25L2.25-3.25 4.8-8.5Q5.33-7.83 6.46-6.98 7.6-6.13 9.11-5.49 10.63-4.85 12.25-4.85L12.25-4.85Q14.13-4.85 15.51-5.9 16.9-6.95 16.9-9L16.9-9Q16.9-11.03 15.46-12.21 14.03-13.4 11.55-14.9L11.55-14.9Q9.53-16.13 7.58-17.51 5.63-18.9 4.34-20.91 3.05-22.93 3.05-26L3.05-26Q3.05-30.13 5.69-32.79 8.33-35.45 13.35-35.45L13.35-35.45Q15.9-35.45 17.69-34.85 19.48-34.25 20.59-33.48 21.7-32.7 22.25-32.2L22.25-32.2 19.45-27.1Q19.1-27.6 18.28-28.33 17.45-29.05 16.25-29.6 15.05-30.15 13.6-30.15L13.6-30.15Q11.58-30.15 10.56-28.99 9.55-27.83 9.55-26.25L9.55-26.25Q9.55-24.23 11.04-22.95 12.53-21.68 14.65-20.4L14.65-20.4Q17-19 19-17.59 21-16.18 22.23-14.21 23.45-12.25 23.45-9.2L23.45-9.2Q23.45-4.63 20.58-2.04 17.7 0.55 12.7 0.55ZM33.9 0.7L33.9 0.7Q31.6 0.7 30.09-0.33 28.57-1.35 27.84-3.05 27.1-4.75 27.1-6.8L27.1-6.8Q27.1-7.95 27.69-9.33 28.27-10.7 29.77-11.95 31.27-13.2 34-14 36.72-14.8 41-14.8L41-14.8 41-15.95Q41-17.8 40.11-19.03 39.22-20.25 36.55-20.25L36.55-20.25Q34.6-20.25 32.73-19.59 30.87-18.93 30-17.95L30-17.95 28-22.75Q29.5-23.78 32.01-24.64 34.52-25.5 37.6-25.5L37.6-25.5Q41.3-25.5 43.35-24.38 45.4-23.25 46.22-21.19 47.05-19.13 47.05-16.35L47.05-16.35 47.05 0 41.7 0 41.25-3.55Q38.65 0.7 33.9 0.7ZM36.55-4.1L36.55-4.1Q37.67-4.1 38.96-5.01 40.25-5.93 41-7.35L41-7.35 41-10.9Q40.75-10.95 40.46-10.95 40.17-10.95 39.8-10.95L39.8-10.95Q38.42-10.95 36.91-10.64 35.4-10.33 34.35-9.55 33.3-8.78 33.3-7.4L33.3-7.4Q33.3-5.6 34.1-4.85 34.9-4.1 36.55-4.1ZM60.15 0L54.09 0 54.09-19.65 50.75-19.65 50.75-24.9 54.09-24.9 54.09-29.5Q54.09-32.4 54.93-34.23 55.77-36.05 57.07-37.04 58.37-38.02 59.83-38.41 61.3-38.8 62.55-38.8L62.55-38.8Q65-38.8 66.23-38.36 67.47-37.93 67.7-37.7L67.7-37.7 67.7-32.25Q67.15-32.98 66.02-33.31 64.9-33.65 64.09-33.65L64.09-33.65Q63.17-33.65 62.26-33.35 61.34-33.05 60.75-32.19 60.15-31.33 60.15-29.65L60.15-29.65 60.15-24.9 66.2-24.9 66.2-19.65 60.15-19.65 60.15 0ZM79.79 0.65L79.79 0.65Q75.59 0.65 73.02-1.11 70.44-2.88 69.27-5.79 68.09-8.7 68.09-12.15L68.09-12.15Q68.09-15.78 69.43-18.81 70.77-21.85 73.36-23.68 75.94-25.5 79.69-25.5L79.69-25.5Q85.29-25.5 87.52-22.26 89.74-19.03 89.74-13.1L89.74-13.1Q89.74-12.58 89.72-11.78 89.69-10.98 89.64-10.4L89.64-10.4 74.64-10.4Q74.79-7.45 76.31-5.78 77.82-4.1 80.84-4.1L80.84-4.1Q82.39-4.1 84.17-4.79 85.94-5.48 86.79-6.45L86.79-6.45 88.79-1.7Q87.79-1.03 85.63-0.19 83.47 0.65 79.79 0.65ZM74.59-14.3L74.59-14.3 83.39-14.3Q83.39-16.93 82.93-18.31 82.47-19.7 81.67-20.23 80.87-20.75 79.84-20.75L79.84-20.75Q77.29-20.75 76.02-18.86 74.74-16.98 74.59-14.3ZM118.94 0.08L118.14 0.08 109.97-19.93 101.94 0.03 101.09 0.03 89.44-34.85 96.34-34.85 102.42-14.63 109.69-34.85 110.54-34.85 117.92-14.7 123.64-34.85 130.49-34.85 118.94 0.08ZM136.94 0.7L136.94 0.7Q134.64 0.7 133.13-0.33 131.61-1.35 130.88-3.05 130.14-4.75 130.14-6.8L130.14-6.8Q130.14-7.95 130.73-9.33 131.31-10.7 132.81-11.95 134.31-13.2 137.04-14 139.76-14.8 144.04-14.8L144.04-14.8 144.04-15.95Q144.04-17.8 143.15-19.03 142.26-20.25 139.59-20.25L139.59-20.25Q137.64-20.25 135.78-19.59 133.91-18.93 133.04-17.95L133.04-17.95 131.04-22.75Q132.54-23.78 135.05-24.64 137.56-25.5 140.64-25.5L140.64-25.5Q144.34-25.5 146.39-24.38 148.44-23.25 149.26-21.19 150.09-19.13 150.09-16.35L150.09-16.35 150.09 0 144.74 0 144.29-3.55Q141.69 0.7 136.94 0.7ZM139.59-4.1L139.59-4.1Q140.71-4.1 142-5.01 143.29-5.93 144.04-7.35L144.04-7.35 144.04-10.9Q143.79-10.95 143.5-10.95 143.21-10.95 142.84-10.95L142.84-10.95Q141.46-10.95 139.95-10.64 138.44-10.33 137.39-9.55 136.34-8.78 136.34-7.4L136.34-7.4Q136.34-5.6 137.14-4.85 137.94-4.1 139.59-4.1ZM162.99 0L156.89 0 156.89-38 162.99-38 162.99 0ZM176.68 0L170.58 0 170.58-38 176.68-38 176.68 0ZM193.28 0.65L193.28 0.65Q189.08 0.65 186.5-1.11 183.93-2.88 182.75-5.79 181.58-8.7 181.58-12.15L181.58-12.15Q181.58-15.78 182.92-18.81 184.25-21.85 186.84-23.68 189.43-25.5 193.18-25.5L193.18-25.5Q198.78-25.5 201-22.26 203.23-19.03 203.23-13.1L203.23-13.1Q203.23-12.58 203.2-11.78 203.18-10.98 203.13-10.4L203.13-10.4 188.13-10.4Q188.28-7.45 189.79-5.78 191.3-4.1 194.33-4.1L194.33-4.1Q195.88-4.1 197.66-4.79 199.43-5.48 200.28-6.45L200.28-6.45 202.28-1.7Q201.28-1.03 199.12-0.19 196.95 0.65 193.28 0.65ZM188.08-14.3L188.08-14.3 196.88-14.3Q196.88-16.93 196.42-18.31 195.95-19.7 195.16-20.23 194.35-20.75 193.33-20.75L193.33-20.75Q190.78-20.75 189.5-18.86 188.23-16.98 188.08-14.3ZM217.33 0.75L217.33 0.75Q213.1 0.75 211.62-1.45 210.13-3.65 210.13-8.1L210.13-8.1 210.13-19.65 206.88-19.65 206.88-24.9 210.38-24.9 210.73-30.15 216.18-32.5 216.18-24.9 222.33-24.9 222.33-19.65 216.18-19.65 216.18-8.25Q216.18-6.08 216.79-5.24 217.4-4.4 218.48-4.4L218.48-4.4Q219.58-4.4 220.8-4.98 222.03-5.55 222.73-6.15L222.73-6.15 223.93-1.1Q223.15-0.55 221.92-0.14 220.68 0.28 219.42 0.51 218.15 0.75 217.33 0.75Z" opacity="1" transform="matrix(1,0,0,1,0,0)" fill="#ffffff" class="wordmark-text-0" data-fill-palette-color="primary" id="text-0"></path></svg></g></svg></g><g transform="matrix(1,0,0,1,0,87.21564921071719)"><svg viewBox="0 0 278.05055999999996 19.876625575009076" height="19.876625575009076" width="278.05055999999996"><g transform="matrix(1,0,0,1,0,0)"><svg width="278.05055999999996" viewBox="4.1 -37.6 688.18 49.2" height="19.876625575009076" data-palette-color="#b19dd0"><path d="M7.9 0L4.1-34.85 9-35.35 11.7-5.05 23.9-31.35 29.85-31.35 32.65-5.05 46-35.2 50.2-33.25 34.8 0 28.9 0 26.05-26.3 13.8 0 7.9 0ZM69.35-18.4L69.35-18.4Q69.35-20.3 68.22-21.48 67.1-22.65 65.3-22.65L65.3-22.65Q63.55-22.65 61.47-21.4 59.4-20.15 57.7-17.5 56-14.85 55.25-10.65L55.25-10.65 53.4 0 48.9 0 55.4-37 59.9-37 57-20.55Q58.55-23.3 61.07-24.95 63.6-26.6 66.4-26.6L66.4-26.6Q69.85-26.6 71.87-24.53 73.9-22.45 73.9-19.45L73.9-19.45Q73.9-18.2 73.6-16.3L73.6-16.3 70.75 0 66.25 0 69-15.55Q69.25-16.75 69.3-17.32 69.35-17.9 69.35-18.4ZM89.55 0.6L89.55 0.6Q86.25 0.6 83.72-0.83 81.2-2.25 79.77-4.93 78.34-7.6 78.34-11.25L78.34-11.25Q78.34-15.4 80.07-18.9 81.8-22.4 84.97-24.5 88.15-26.6 92.4-26.6L92.4-26.6Q95.3-26.6 97.32-25.5 99.34-24.4 100.45-22.65 101.55-20.9 101.55-18.9L101.55-18.9Q101.55-16.15 100.25-14.35 98.95-12.55 96.9-11.58 94.84-10.6 92.47-10.2 90.09-9.8 87.95-9.8L87.95-9.8Q86.59-9.8 85.27-9.93 83.95-10.05 82.95-10.2L82.95-10.2Q83.34-6.9 85.3-5.15 87.25-3.4 90.3-3.4L90.3-3.4Q92.8-3.4 94.75-4.05 96.7-4.7 98.05-5.35L98.05-5.35 98.45-1.35Q96.95-0.65 94.65-0.03 92.34 0.6 89.55 0.6ZM92.05-22.8L92.05-22.8Q89.7-22.8 87.8-21.63 85.9-20.45 84.67-18.43 83.45-16.4 83.05-13.8L83.05-13.8Q84.2-13.6 85.37-13.48 86.55-13.35 87.95-13.35L87.95-13.35Q92.15-13.35 94.59-14.53 97.05-15.7 97.05-18.55L97.05-18.55Q97.05-20.3 95.67-21.55 94.3-22.8 92.05-22.8ZM104.99 0L108.29-18.7Q108.34-18.95 108.37-19.28 108.39-19.6 108.39-19.95L108.39-19.95Q108.39-21.35 107.59-21.93 106.79-22.5 105.49-22.5L105.49-22.5 107.04-26Q109.69-26 111.12-24.73 112.54-23.45 112.54-20.95L112.54-20.95 112.54-19.95Q113.99-23.5 116.27-25.05 118.54-26.6 121.44-26.6L121.44-26.6Q122.59-26.6 123.42-26.43 124.24-26.25 124.79-26L124.79-26 122.79-21.6Q122.19-21.85 121.54-21.95 120.89-22.05 120.04-22.05L120.04-22.05Q118.24-22.05 116.47-20.78 114.69-19.5 113.27-16.55 111.84-13.6 110.94-8.45L110.94-8.45 109.49 0 104.99 0ZM135.19 0.6L135.19 0.6Q131.89 0.6 129.37-0.83 126.84-2.25 125.42-4.93 123.99-7.6 123.99-11.25L123.99-11.25Q123.99-15.4 125.72-18.9 127.44-22.4 130.62-24.5 133.79-26.6 138.04-26.6L138.04-26.6Q140.94-26.6 142.97-25.5 144.99-24.4 146.09-22.65 147.19-20.9 147.19-18.9L147.19-18.9Q147.19-16.15 145.89-14.35 144.59-12.55 142.54-11.58 140.49-10.6 138.12-10.2 135.74-9.8 133.59-9.8L133.59-9.8Q132.24-9.8 130.92-9.93 129.59-10.05 128.59-10.2L128.59-10.2Q128.99-6.9 130.94-5.15 132.89-3.4 135.94-3.4L135.94-3.4Q138.44-3.4 140.39-4.05 142.34-4.7 143.69-5.35L143.69-5.35 144.09-1.35Q142.59-0.65 140.29-0.03 137.99 0.6 135.19 0.6ZM137.69-22.8L137.69-22.8Q135.34-22.8 133.44-21.63 131.54-20.45 130.32-18.43 129.09-16.4 128.69-13.8L128.69-13.8Q129.84-13.6 131.02-13.48 132.19-13.35 133.59-13.35L133.59-13.35Q137.79-13.35 140.24-14.53 142.69-15.7 142.69-18.55L142.69-18.55Q142.69-20.3 141.32-21.55 139.94-22.8 137.69-22.8ZM169.59-3.5L169.59-3.5Q172.59-3.5 174.74-7.3L174.74-7.3 176.89-11.2 170.29-28.85Q169.79-30.2 168.91-30.75 168.04-31.3 166.54-31.3L166.54-31.3 168.54-35.25Q171.19-35.25 172.59-34.18 173.99-33.1 174.79-30.65L174.79-30.65 179.84-15.9 190.59-35.4 194.54-33.25 179.49-7Q177.19-3 174.91-1.2 172.64 0.6 169.24 0.6L169.24 0.6Q167.29 0.6 165.54-0.15 163.79-0.9 162.64-2.15L162.64-2.15 165.54-5.55Q166.34-4.65 167.34-4.08 168.34-3.5 169.59-3.5ZM202.53 0.6L202.53 0.6Q198.83 0.6 196.13-0.9 193.43-2.4 191.96-5.08 190.48-7.75 190.48-11.15L190.48-11.15Q190.48-15.5 192.26-19 194.03-22.5 197.23-24.55 200.43-26.6 204.78-26.6L204.78-26.6Q208.48-26.6 211.18-25.1 213.88-23.6 215.36-20.95 216.83-18.3 216.83-14.85L216.83-14.85Q216.83-10.55 215.08-7.03 213.33-3.5 210.11-1.45 206.88 0.6 202.53 0.6ZM202.68-3.4L202.68-3.4Q205.68-3.4 207.81-4.88 209.93-6.35 211.08-8.85 212.23-11.35 212.23-14.45L212.23-14.45Q212.23-16.75 211.33-18.57 210.43-20.4 208.73-21.5 207.03-22.6 204.63-22.6L204.63-22.6Q201.68-22.6 199.53-21.13 197.38-19.65 196.23-17.15 195.08-14.65 195.08-11.55L195.08-11.55Q195.08-9.3 195.98-7.45 196.88-5.6 198.58-4.5 200.28-3.4 202.68-3.4ZM228.38 0.6L228.38 0.6Q226.38 0.6 224.71-0.3 223.03-1.2 222.03-2.83 221.03-4.45 221.03-6.7L221.03-6.7Q221.03-7.35 221.08-8.03 221.13-8.7 221.23-9.45L221.23-9.45 224.08-26 228.58-26 225.68-9.55Q225.63-9.05 225.58-8.68 225.53-8.3 225.53-7.85L225.53-7.85Q225.53-5.6 226.83-4.5 228.13-3.4 229.88-3.4L229.88-3.4Q231.78-3.4 233.61-4.58 235.43-5.75 236.83-7.95 238.23-10.15 238.78-13.25L238.78-13.25 241.03-26 245.53-26 242.23-7.05Q242.18-6.8 242.16-6.48 242.13-6.15 242.13-5.8L242.13-5.8Q242.13-4.4 242.93-3.83 243.73-3.25 245.03-3.25L245.03-3.25 243.48 0.25Q240.78 0.25 239.36-1.07 237.93-2.4 237.93-5.2L237.93-5.2 237.93-5.65Q234.28 0.6 228.38 0.6ZM250.23 0L253.53-18.7Q253.58-18.95 253.6-19.28 253.63-19.6 253.63-19.95L253.63-19.95Q253.63-21.35 252.83-21.93 252.03-22.5 250.73-22.5L250.73-22.5 252.28-26Q254.93-26 256.35-24.73 257.78-23.45 257.78-20.95L257.78-20.95 257.78-19.95Q259.23-23.5 261.5-25.05 263.78-26.6 266.68-26.6L266.68-26.6Q267.83-26.6 268.65-26.43 269.48-26.25 270.03-26L270.03-26 268.03-21.6Q267.43-21.85 266.78-21.95 266.13-22.05 265.28-22.05L265.28-22.05Q263.48-22.05 261.7-20.78 259.93-19.5 258.5-16.55 257.08-13.6 256.18-8.45L256.18-8.45 254.73 0 250.23 0ZM312.92 0L318.07-29.25 305.12-7.9 300.47-7.9 294.62-29.45 289.47 0 284.97 0 291.12-35 297.57-35 303.47-12.7 316.67-35 323.82-35 317.67 0 312.92 0ZM338.32 0.6L338.32 0.6Q334.62 0.6 331.92-0.9 329.22-2.4 327.75-5.08 326.27-7.75 326.27-11.15L326.27-11.15Q326.27-15.5 328.05-19 329.82-22.5 333.02-24.55 336.22-26.6 340.57-26.6L340.57-26.6Q344.27-26.6 346.97-25.1 349.67-23.6 351.15-20.95 352.62-18.3 352.62-14.85L352.62-14.85Q352.62-10.55 350.87-7.03 349.12-3.5 345.9-1.45 342.67 0.6 338.32 0.6ZM338.47-3.4L338.47-3.4Q341.47-3.4 343.6-4.88 345.72-6.35 346.87-8.85 348.02-11.35 348.02-14.45L348.02-14.45Q348.02-16.75 347.12-18.57 346.22-20.4 344.52-21.5 342.82-22.6 340.42-22.6L340.42-22.6Q337.47-22.6 335.32-21.13 333.17-19.65 332.02-17.15 330.87-14.65 330.87-11.55L330.87-11.55Q330.87-9.3 331.77-7.45 332.67-5.6 334.37-4.5 336.07-3.4 338.47-3.4ZM372.67-22.65L372.67-22.65Q370.92-22.65 368.87-21.35 366.82-20.05 365.09-17.32 363.37-14.6 362.62-10.35L362.62-10.35 360.82 0 356.32 0 360.87-26 365.22-26 364.12-20Q365.67-23 368.29-24.8 370.92-26.6 373.82-26.6L373.82-26.6Q377.22-26.6 379.27-24.53 381.32-22.45 381.32-19.45L381.32-19.45Q381.32-18.2 381.02-16.3L381.02-16.3 378.17 0 373.67 0 376.42-15.55Q376.67-16.75 376.72-17.32 376.77-17.9 376.77-18.4L376.77-18.4Q376.77-20.35 375.64-21.5 374.52-22.65 372.67-22.65ZM396.97 0.6L396.97 0.6Q393.67 0.6 391.14-0.83 388.62-2.25 387.19-4.93 385.77-7.6 385.77-11.25L385.77-11.25Q385.77-15.4 387.49-18.9 389.22-22.4 392.39-24.5 395.57-26.6 399.82-26.6L399.82-26.6Q402.72-26.6 404.74-25.5 406.77-24.4 407.87-22.65 408.97-20.9 408.97-18.9L408.97-18.9Q408.97-16.15 407.67-14.35 406.37-12.55 404.32-11.58 402.27-10.6 399.89-10.2 397.52-9.8 395.37-9.8L395.37-9.8Q394.02-9.8 392.69-9.93 391.37-10.05 390.37-10.2L390.37-10.2Q390.77-6.9 392.72-5.15 394.67-3.4 397.72-3.4L397.72-3.4Q400.22-3.4 402.17-4.05 404.12-4.7 405.47-5.35L405.47-5.35 405.87-1.35Q404.37-0.65 402.07-0.03 399.77 0.6 396.97 0.6ZM399.47-22.8L399.47-22.8Q397.12-22.8 395.22-21.63 393.32-20.45 392.09-18.43 390.87-16.4 390.47-13.8L390.47-13.8Q391.62-13.6 392.79-13.48 393.97-13.35 395.37-13.35L395.37-13.35Q399.57-13.35 402.02-14.53 404.47-15.7 404.47-18.55L404.47-18.55Q404.47-20.3 403.09-21.55 401.72-22.8 399.47-22.8ZM421.06-4L421.06-4Q422.96-4 424.79-5.2 426.61-6.4 428.01-8.68 429.41-10.95 429.96-14.2L429.96-14.2 432.01-26 436.51-26 431.96 0.3Q431.36 3.75 430.14 5.95 428.91 8.15 427.29 9.38 425.66 10.6 423.86 11.1 422.06 11.6 420.31 11.6L420.31 11.6Q416.91 11.6 414.54 10.2 412.16 8.8 410.66 6.95L410.66 6.95 414.16 4.35Q416.61 7.7 420.61 7.7L420.61 7.7Q423.11 7.7 425.01 5.85 426.91 4 427.71-0.45L427.71-0.45 428.66-5.75Q427.16-3.35 424.86-1.68 422.56 0 419.56 0L419.56 0Q417.61 0 415.96-0.88 414.31-1.75 413.31-3.4 412.31-5.05 412.31-7.3L412.31-7.3Q412.31-7.85 412.34-8.55 412.36-9.25 412.51-10.05L412.51-10.05 415.21-26 419.71-26 416.96-10.15Q416.81-9.25 416.81-8.45L416.81-8.45Q416.81-6.2 418.09-5.1 419.36-4 421.06-4ZM454.96 0L461.11-35 481.61-35 480.91-30.9 465.11-30.9 463.26-20.2 476.36-20.2 475.66-16.3 462.56-16.3 459.71 0 454.96 0ZM490.01 0.6L490.01 0.6Q486.71 0.6 484.18-0.83 481.66-2.25 480.23-4.93 478.81-7.6 478.81-11.25L478.81-11.25Q478.81-15.4 480.53-18.9 482.26-22.4 485.43-24.5 488.61-26.6 492.86-26.6L492.86-26.6Q495.76-26.6 497.78-25.5 499.81-24.4 500.91-22.65 502.01-20.9 502.01-18.9L502.01-18.9Q502.01-16.15 500.71-14.35 499.41-12.55 497.36-11.58 495.31-10.6 492.93-10.2 490.56-9.8 488.41-9.8L488.41-9.8Q487.06-9.8 485.73-9.93 484.41-10.05 483.41-10.2L483.41-10.2Q483.81-6.9 485.76-5.15 487.71-3.4 490.76-3.4L490.76-3.4Q493.26-3.4 495.21-4.05 497.16-4.7 498.51-5.35L498.51-5.35 498.91-1.35Q497.41-0.65 495.11-0.03 492.81 0.6 490.01 0.6ZM492.51-22.8L492.51-22.8Q490.16-22.8 488.26-21.63 486.36-20.45 485.13-18.43 483.91-16.4 483.51-13.8L483.51-13.8Q484.66-13.6 485.83-13.48 487.01-13.35 488.41-13.35L488.41-13.35Q492.61-13.35 495.06-14.53 497.51-15.7 497.51-18.55L497.51-18.55Q497.51-20.3 496.13-21.55 494.76-22.8 492.51-22.8ZM515.9 0.6L515.9 0.6Q512.6 0.6 510.08-0.83 507.55-2.25 506.13-4.93 504.7-7.6 504.7-11.25L504.7-11.25Q504.7-15.4 506.43-18.9 508.15-22.4 511.33-24.5 514.5-26.6 518.75-26.6L518.75-26.6Q521.65-26.6 523.68-25.5 525.7-24.4 526.8-22.65 527.9-20.9 527.9-18.9L527.9-18.9Q527.9-16.15 526.6-14.35 525.3-12.55 523.25-11.58 521.2-10.6 518.83-10.2 516.45-9.8 514.3-9.8L514.3-9.8Q512.95-9.8 511.63-9.93 510.3-10.05 509.3-10.2L509.3-10.2Q509.7-6.9 511.65-5.15 513.6-3.4 516.65-3.4L516.65-3.4Q519.15-3.4 521.1-4.05 523.05-4.7 524.4-5.35L524.4-5.35 524.8-1.35Q523.3-0.65 521-0.03 518.7 0.6 515.9 0.6ZM518.4-22.8L518.4-22.8Q516.05-22.8 514.15-21.63 512.25-20.45 511.03-18.43 509.8-16.4 509.4-13.8L509.4-13.8Q510.55-13.6 511.73-13.48 512.9-13.35 514.3-13.35L514.3-13.35Q518.5-13.35 520.95-14.53 523.4-15.7 523.4-18.55L523.4-18.55Q523.4-20.3 522.03-21.55 520.65-22.8 518.4-22.8ZM540.95-37L536.05-9Q535.95-8.35 535.9-7.83 535.85-7.3 535.85-6.9L535.85-6.9Q535.85-5.2 536.88-4.25 537.9-3.3 539.6-3.3L539.6-3.3Q540.45-3.3 541.3-3.5 542.15-3.7 542.85-4.05L542.85-4.05 543.3-0.4Q542.4 0.05 541.2 0.33 540 0.6 538.6 0.6L538.6 0.6Q535.6 0.6 533.48-1.13 531.35-2.85 531.35-6.35L531.35-6.35Q531.35-7.65 531.55-8.9L531.55-8.9 536.45-37 540.95-37ZM567-24.15L565.2-20.35Q563.75-21.35 561.97-22.1 560.2-22.85 557.95-22.85L557.95-22.85Q555.6-22.85 554.3-22.05 553-21.25 553-19.95L553-19.95Q553-19.2 553.42-18.53 553.85-17.85 554.97-17.1 556.1-16.35 558.15-15.3L558.15-15.3Q561.55-13.6 563.2-11.78 564.85-9.95 564.85-7.3L564.85-7.3Q564.85-4.65 563.45-2.9 562.05-1.15 559.7-0.28 557.35 0.6 554.4 0.6L554.4 0.6Q551.35 0.6 549.02-0.18 546.7-0.95 545-2.2L545-2.2 547.55-5.9Q548.9-4.8 550.75-4.05 552.6-3.3 554.8-3.3L554.8-3.3Q557.3-3.3 558.75-4.25 560.2-5.2 560.2-6.6L560.2-6.6Q560.2-7.9 559.12-9 558.05-10.1 554.95-11.65L554.95-11.65Q552.45-12.9 551.05-14.08 549.65-15.25 549.1-16.6 548.55-17.95 548.55-19.7L548.55-19.7Q548.55-21.7 549.75-23.25 550.95-24.8 553.1-25.7 555.25-26.6 558.05-26.6L558.05-26.6Q560.85-26.6 563.07-25.88 565.3-25.15 567-24.15L567-24.15ZM601.64-8.85L601.64-8.85Q601.64-10.25 601.07-11.4 600.49-12.55 598.99-13.78 597.49-15 594.69-16.55L594.69-16.55Q590.79-18.75 589.17-20.9 587.54-23.05 587.54-26.4L587.54-26.4Q587.54-29.2 589.02-31.25 590.49-33.3 593.14-34.45 595.79-35.6 599.24-35.6L599.24-35.6Q602.39-35.6 604.94-34.83 607.49-34.05 609.69-32.75L609.69-32.75 607.24-28.85Q605.44-30 603.47-30.75 601.49-31.5 598.84-31.5L598.84-31.5Q595.89-31.5 594.09-30.23 592.29-28.95 592.29-26.9L592.29-26.9Q592.29-25.05 593.57-23.63 594.84-22.2 598.29-20.35L598.29-20.35Q601.59-18.6 603.37-16.93 605.14-15.25 605.82-13.4 606.49-11.55 606.49-9.3L606.49-9.3Q606.49-6.25 604.92-4.03 603.34-1.8 600.54-0.6 597.74 0.6 594.04 0.6L594.04 0.6Q590.44 0.6 587.54-0.38 584.64-1.35 582.44-3.1L582.44-3.1 585.54-6.95Q587.24-5.4 589.52-4.48 591.79-3.55 594.54-3.55L594.54-3.55Q597.79-3.55 599.72-4.98 601.64-6.4 601.64-8.85ZM611.14-10.25L611.14-10.25Q611.14-15.1 613.26-18.78 615.39-22.45 619.14-24.53 622.89-26.6 627.69-26.6L627.69-26.6Q630.64-26.6 632.86-26 635.09-25.4 636.54-24.8L636.54-24.8 633.39-7.05Q633.34-6.8 633.31-6.48 633.29-6.15 633.29-5.8L633.29-5.8Q633.29-4.4 634.09-3.83 634.89-3.25 636.19-3.25L636.19-3.25 634.64 0.25Q631.94 0.25 630.51-1.07 629.09-2.4 629.09-5.2L629.09-5.2Q627.69-2.8 625.56-1.1 623.44 0.6 620.59 0.6L620.59 0.6Q618.14 0.6 615.99-0.73 613.84-2.05 612.49-4.48 611.14-6.9 611.14-10.25ZM630.24-14.4L631.59-22.15Q630.64-22.45 629.61-22.63 628.59-22.8 627.14-22.8L627.14-22.8Q623.69-22.8 621.14-21.25 618.59-19.7 617.16-16.98 615.74-14.25 615.74-10.8L615.74-10.8Q615.74-8.4 616.61-6.75 617.49-5.1 618.89-4.25 620.29-3.4 621.79-3.4L621.79-3.4Q623.84-3.4 625.54-4.8 627.24-6.2 628.46-8.7 629.69-11.2 630.24-14.4L630.24-14.4ZM651.79-29.2L651.04-25.05 658.74-25.05 658.04-21.15 650.34-21.15 645.94 3.6Q645.14 8 642.96 9.8 640.79 11.6 637.69 11.6L637.69 11.6Q636.04 11.6 634.66 11.15 633.29 10.7 632.24 9.9L632.24 9.9 634.04 6.2Q634.74 6.85 635.69 7.28 636.64 7.7 637.74 7.7L637.74 7.7Q639.09 7.7 640.09 6.75 641.09 5.8 641.44 3.7L641.44 3.7 645.84-21.15 641.84-21.15 642.54-25.05 646.54-25.05 647.29-29.05Q648.14-33.65 650.56-35.63 652.99-37.6 656.69-37.6L656.69-37.6Q658.74-37.6 660.49-37.08 662.24-36.55 663.64-35.8L663.64-35.8 661.89-32Q660.74-32.6 659.51-33.1 658.29-33.6 656.64-33.6L656.64-33.6Q654.79-33.6 653.49-32.52 652.19-31.45 651.79-29.2L651.79-29.2ZM669.78 0.6L669.78 0.6Q666.48 0.6 663.96-0.83 661.43-2.25 660.01-4.93 658.58-7.6 658.58-11.25L658.58-11.25Q658.58-15.4 660.31-18.9 662.03-22.4 665.21-24.5 668.38-26.6 672.63-26.6L672.63-26.6Q675.53-26.6 677.56-25.5 679.58-24.4 680.68-22.65 681.78-20.9 681.78-18.9L681.78-18.9Q681.78-16.15 680.48-14.35 679.18-12.55 677.13-11.58 675.08-10.6 672.71-10.2 670.33-9.8 668.18-9.8L668.18-9.8Q666.83-9.8 665.51-9.93 664.18-10.05 663.18-10.2L663.18-10.2Q663.58-6.9 665.53-5.15 667.48-3.4 670.53-3.4L670.53-3.4Q673.03-3.4 674.98-4.05 676.93-4.7 678.28-5.35L678.28-5.35 678.68-1.35Q677.18-0.65 674.88-0.03 672.58 0.6 669.78 0.6ZM672.28-22.8L672.28-22.8Q669.93-22.8 668.03-21.63 666.13-20.45 664.91-18.43 663.68-16.4 663.28-13.8L663.28-13.8Q664.43-13.6 665.61-13.48 666.78-13.35 668.18-13.35L668.18-13.35Q672.38-13.35 674.83-14.53 677.28-15.7 677.28-18.55L677.28-18.55Q677.28-20.3 675.91-21.55 674.53-22.8 672.28-22.8ZM688.58 0.6L688.58 0.6Q687.18 0.6 686.33-0.28 685.48-1.15 685.48-2.25L685.48-2.25Q685.48-4.1 686.63-5.1 687.78-6.1 689.18-6.1L689.18-6.1Q690.63-6.1 691.46-5.25 692.28-4.4 692.28-3.25L692.28-3.25Q692.28-1.4 691.16-0.4 690.03 0.6 688.58 0.6Z" opacity="1" transform="matrix(1,0,0,1,0,0)" fill="#ffffff" class="slogan-text-1" data-fill-palette-color="secondary" id="text-1"></path></svg></g></svg></g></svg></g></svg></g><g><svg viewBox="0 0 229.03536916251545 229.03536916251545" height="229.03536916251545" width="229.03536916251545"><g><svg></svg></g><g id="icon-0"><svg viewBox="0 0 229.03536916251545 229.03536916251545" height="229.03536916251545" width="229.03536916251545"><g><path d="M0 114.518c0-63.246 51.271-114.518 114.518-114.518 63.246 0 114.518 51.271 114.517 114.518 0 63.246-51.271 114.518-114.517 114.517-63.246 0-114.518-51.271-114.518-114.517zM114.518 222.672c59.732 0 108.155-48.422 108.154-108.154 0-59.732-48.422-108.155-108.154-108.155-59.732 0-108.155 48.422-108.155 108.155 0 59.732 48.422 108.155 108.155 108.154z" data-fill-palette-color="accent" fill="#ffffff" stroke="transparent"></path></g><g transform="matrix(1,0,0,1,48.90469930163367,46.6827534289462)"><svg viewBox="0 0 131.2259705592481 135.66986230462305" height="135.66986230462305" width="131.2259705592481"><g><svg xmlns="http://www.w3.org/2000/svg" xmlns:xlink="http://www.w3.org/1999/xlink" version="1.1" x="0" y="0" viewBox="1.5274706178553634 0 96.19152938214464 99.449" enable-background="new 0 0 100 100" xml:space="preserve" height="135.66986230462305" width="131.2259705592481" class="icon-dxe-0" data-fill-palette-color="accent" id="dxe-0"><path fill-rule="evenodd" clip-rule="evenodd" d="M71.567 15.476L59.975 0 19.417 29.243H35.77zM82.479 29.243L77.854 16.735 43.142 29.243zM84.913 27.716H91.553C93.452 27.716 94.674 29.196 94.674 31.089V52.287L97.666 50.792 97.636 29.495C97.636 27.595 94.98 24.664 93.08 24.664H83.701L84.761 27.518zM94.674 76.706V94.136C96.406 93.952 97.719 92.397 97.719 90.618L97.696 75.195zM7.939 27.716H16.723L20.981 24.664H11.015L11.084 24.641C3.712 24.634 1.46 24.718 1.529 33.89V95.93C1.529 97.831 3.422 99.449 5.322 99.449H88.501C90.4 99.449 92.309 97.884 92.309 95.992L92.302 79.426 91.935 79.609H84.304C77.558 79.609 72.093 74.145 72.093 67.399S77.558 55.19 84.304 55.19H91.935L92.293 55.006 92.285 34.218C92.285 32.318 90.4 30.769 88.501 30.769H11.008A5.5 5.5 0 0 1 10.252 30.708H8.374A1.53 1.53 0 0 1 6.848 29.182 1.52 1.52 0 0 1 7.939 27.716M91.935 58.24H84.304A9.154 9.154 0 0 0 75.146 67.397 9.155 9.155 0 0 0 84.304 76.554H91.935L97.673 71.739 97.65 53.547zM79.725 67.397A4.58 4.58 0 0 1 84.304 62.82 4.58 4.58 0 0 1 88.882 67.397 4.583 4.583 0 0 1 84.304 71.976 4.58 4.58 0 0 1 79.725 67.397" fill="#ffffff" data-fill-palette-color="accent"></path></svg></g></svg></g></svg></g></svg></g></svg></g></svg></g><defs></defs></svg><rect width="395.52" height="137.69910574873836" fill="none" stroke="none" visibility="hidden"></rect></g></svg></g></svg>